PathFileType	4	(x/y/z)	TRC_MarkerData\Passive\Passive_Pref0006.trc
DataRate	CameraRate	NumFrames	NumMarkers	Units	OrigDataRate	OrigDataStartFrame	OrigNumFrames
240	240	5	49	mm	240	274	313
Frame#	Time	R_AC			L_AC			HEAD			STERN			C7			R_IC			L_ASIS			R_ASIS			L_GT			R_GT			L_PSIS			R_PSIS			SACRAL			L_LAT_KNEE			L_MED_KNEE			R_LAT_KNEE			R_MED_KNEE			L_LAT_ANK			L_MED_ANK			R_LAT_ANK			R_MED_ANK			L_THIGH_PROX_POST			L_THIGH_PROX_ANT			L_THIGH_DIST_ANT			L_THIGH_DIST_POST			R_THIGH_PROX_POST			R_THIGH_PROX_ANT			R_THIGH_DIST_ANT			R_THIGH_DIST_POST			L_SHANK_PROX_POST			L_SHANK_PROX_ANT			L_SHANK_DIST_ANT			L_SHANK_DIST_POST			R_SHANK_PROX_POST			R_SHANK_PROX_ANT			R_SHANK_DIST_ANT			R_SHANK_DIST_POST			L_HEEL_LAT			L_HEEL_SUP			L_HEEL_MED			R_HEEL_LAT			R_HEEL_SUP			R_HEEL_MED			L_1ST_MET			L_5TH_MET			L_TOE			R_1ST_MET			R_5TH_MET			R_TOE			
		X1	Y1	Z1	X2	Y2	Z2	X3	Y3	Z3	X4	Y4	Z4	X5	Y5	Z5	X6	Y6	Z6	X7	Y7	Z7	X8	Y8	Z8	X9	Y9	Z9	X10	Y10	Z10	X11	Y11	Z11	X12	Y12	Z12	X13	Y13	Z13	X14	Y14	Z14	X15	Y15	Z15	X16	Y16	Z16	X17	Y17	Z17	X18	Y18	Z18	X19	Y19	Z19	X20	Y20	Z20	X21	Y21	Z21	X22	Y22	Z22	X23	Y23	Z23	X24	Y24	Z24	X25	Y25	Z25	X26	Y26	Z26	X27	Y27	Z27	X28	Y28	Z28	X29	Y29	Z29	X30	Y30	Z30	X31	Y31	Z31	X32	Y32	Z32	X33	Y33	Z33	X34	Y34	Z34	X35	Y35	Z35	X36	Y36	Z36	X37	Y37	Z37	X38	Y38	Z38	X39	Y39	Z39	X40	Y40	Z40	X41	Y41	Z41	X42	Y42	Z42	X43	Y43	Z43	X44	Y44	Z44	X45	Y45	Z45	X46	Y46	Z46	X47	Y47	Z47	X48	Y48	Z48	X49	Y49	Z49	

274	1.1411	551.71	1526.8	484.6	513.68	1552.9	74.529	554.88	1867.2	294.1	602.61	1510.4	279.62	470.4	1585	283.89	511.71	1106.6	449.74	582.04	1055.5	159.41	570.92	1058.3	425.67	511.08	969.61	96.943	475.33	981.8	460.83	382.11	1055.6	219.75	369.22	1058.6	327.73	365.81	1021.8	271.04	716.11	606.84	136.08	691.46	610.06	272.95	409.57	566.37	412.32	418.26	566.86	280.59	664.95	142.92	113.7	642.82	134.35	198.24	298.21	105.08	329.46	340.76	141.14	240.04	583.65	797.02	107.49	639.24	823.17	119.53	674.91	760.79	132.07	616.5	733.28	116.45	431.54	803.56	453.97	499.36	794.36	458.74	484.91	720.2	445.46	416.43	732.54	436.42	687.39	506.34	142.45	748.71	506.25	160.73	747.06	455.79	164.73	693.23	458.29	138.23	332.15	386.01	403.29	399.44	384.19	395.04	388.2	312.54	376.43	320.29	314.57	384.23	615.37	63.628	100.84	590.31	87.286	129.53	593.65	59.241	163.8	223.17	73.53	297.82	227.63	107.1	266.92	244.94	80.465	235.68	803.38	71.81	248.44	809.93	77.97	137.4	855.35	91.856	230.56	453.98	52.111	250.91	428.89	35.885	358.22	499.39	44.831	293.38
275	1.1453	556.44	1526.1	484.35	519.05	1552.2	74.213	559.97	1866.5	293.81	607.66	1509.6	279.45	475.49	1584.3	283.53	516.34	1106.1	449.66	586.89	1054.6	159.49	575.35	1057.7	425.77	515.9	968.67	97.016	479.53	981.48	460.86	386.89	1054.9	219.5	373.86	1058.2	327.46	370.41	1021.3	270.82	721.26	606.88	137.26	696.57	609.75	274.14	411.39	566.54	412.28	420.14	566.99	280.54	679.77	141.98	115.38	657.83	133.03	199.92	298.47	105.65	329.24	341.3	141.45	239.8	588.38	795.96	108	643.92	822.18	120.06	679.55	759.85	132.89	621.18	732.29	117.43	434.77	803.62	454.06	502.57	794.05	458.66	487.73	719.98	445.32	419.29	732.67	436.35	694.63	505.79	143.76	755.93	507	162	755.35	456.54	166.03	701.47	457.88	139.56	333.2	386.45	403.12	400.49	384.4	394.98	389.06	312.78	376.36	321.15	315.05	384.06	631.84	61.65	102.59	606.29	84.837	131.27	610.22	56.883	165.55	223.42	74.323	297.48	228.02	107.85	266.55	245.28	81.115	235.36	819.64	73.931	250.18	826.08	80.088	139.1	871.18	95.013	232.24	454.19	52.047	250.91	428.85	35.927	358.15	499.57	44.639	293.41
276	1.1495	561.19	1525.4	484.09	524.42	1551.5	73.895	565.06	1865.7	293.51	612.72	1508.8	279.27	480.6	1583.6	283.16	520.97	1105.6	449.59	591.73	1053.6	159.54	579.82	1057	425.84	520.7	967.69	97.087	483.75	981.13	460.89	391.69	1054.3	219.27	378.52	1057.7	327.22	375.02	1020.7	270.63	726.32	606.87	138.41	701.67	609.4	275.31	413.22	566.7	412.23	422.06	567.1	280.48	694.44	141.18	117.11	672.73	131.88	201.68	298.72	106.21	329.01	341.84	141.76	239.54	593.09	794.84	108.48	648.58	821.14	120.56	684.17	758.84	133.68	625.88	731.24	118.38	438.01	803.66	454.14	505.81	793.71	458.57	490.57	719.72	445.17	422.16	732.79	436.28	701.78	505.22	145.05	763.06	507.73	163.22	763.53	457.3	167.3	709.6	457.47	140.88	334.25	386.88	402.95	401.54	384.59	394.91	389.92	313.01	376.27	322.01	315.52	383.87	648.17	59.854	104.44	622.17	82.561	133.13	626.68	54.721	167.41	223.68	75.105	297.13	228.41	108.59	266.17	245.63	81.752	235.03	835.76	76.218	251.9	842.02	82.353	140.79	886.84	98.318	233.86	454.41	51.987	250.89	428.8	35.969	358.07	499.73	44.453	293.45
277	1.1537	565.97	1524.6	483.82	529.78	1550.7	73.576	570.16	1864.9	293.21	617.81	1508	279.08	485.72	1582.8	282.8	525.61	1105	449.5	596.58	1052.6	159.57	584.33	1056.4	425.9	525.49	966.67	97.154	488.01	980.75	460.92	396.48	1053.5	219.06	383.2	1057.1	326.99	379.66	1020.1	270.46	731.3	606.78	139.51	706.78	609.01	276.45	415.06	566.84	412.18	424	567.2	280.4	708.94	140.52	118.9	687.51	130.88	203.5	298.95	106.78	328.79	342.38	142.06	239.28	597.78	793.67	108.94	653.23	820.04	121.02	688.75	757.78	134.44	630.59	730.14	119.29	441.28	803.67	454.21	509.06	793.34	458.48	493.44	719.44	445.01	425.05	732.87	436.2	708.84	504.64	146.35	770.09	508.45	164.4	771.61	458.05	168.53	717.64	457.06	142.2	335.32	387.31	402.76	402.6	384.78	394.83	390.78	313.22	376.18	322.87	315.99	383.67	664.33	58.234	106.38	637.92	80.456	135.09	643.02	52.752	169.38	223.93	75.877	296.76	228.8	109.32	265.78	245.97	82.378	234.68	851.7	78.661	253.59	857.74	84.753	142.45	902.3	101.76	235.44	454.62	51.931	250.87	428.74	36.011	357.98	499.9	44.273	293.49
278	1.1579	570.78	1523.8	483.55	535.14	1549.9	73.254	575.26	1864.1	292.9	622.91	1507.1	278.88	490.86	1582.1	282.43	530.27	1104.4	449.41	601.43	1051.5	159.59	588.89	1055.6	425.93	530.28	965.61	97.216	492.3	980.32	460.95	401.29	1052.8	218.87	387.9	1056.5	326.79	384.31	1019.5	270.31	736.21	606.64	140.59	711.88	608.6	277.57	416.93	566.96	412.11	425.97	567.28	280.33	723.27	140	120.72	702.17	130.04	205.38	299.15	107.34	328.58	342.92	142.35	239	602.46	792.45	109.37	657.88	818.9	121.45	693.32	756.65	135.17	635.31	729	120.16	444.57	803.65	454.27	512.34	792.95	458.39	496.33	719.14	444.86	427.95	732.93	436.12	715.82	504.04	147.63	777.01	509.13	165.53	779.57	458.8	169.73	725.59	456.65	143.51	336.39	387.73	402.56	403.67	384.94	394.73	391.65	313.43	376.08	323.74	316.46	383.46	680.32	56.783	108.41	653.54	78.518	137.16	659.22	50.971	171.45	224.18	76.641	296.38	229.18	110.04	265.37	246.32	82.995	234.33	867.47	81.249	255.26	873.22	87.276	144.09	917.56	105.33	236.97	454.82	51.88	250.85	428.67	36.053	357.89	500.06	44.1	293.53
